<svg width="167" height="32" viewBox="0 0 167 32" fill="none" xmlns="http://www.w3.org/2000/svg">
<g>
  <path id="svg_7" d="m9.58006,11.09189c-0.86569,-0.30328 -1.13955,-0.47641 -1.13955,-0.80798c0,-0.35986 0.30328,-0.57713 0.83627,-0.57713c0.60542,0 1.21084,0.23085 1.52883,0.40399l0.38928,-1.51411c-0.43228,-0.21501 -1.16784,-0.40173 -1.99053,-0.40173c-1.74383,0 -2.86867,0.9947 -2.86867,2.30625c-0.01471,0.83627 0.54771,1.62841 2.00411,2.11953c0.82156,0.27385 1.0377,0.44699 1.0377,0.80798c0,0.35986 -0.27385,0.59071 -0.93699,0.59071c-0.64842,0 -1.48469,-0.28856 -1.88868,-0.53413l-0.38928,1.57183c0.533,0.28856 1.35456,0.48999 2.27796,0.48999c2.01882,0 3.05652,-0.96641 3.05652,-2.27796c-0.01358,-1.0377 -0.576,-1.71554 -1.91697,-2.17725l0,0.00001z" fill="#212121" stroke="null"/>
  <path stroke-width="0" id="svg_12" d="m21.09887,8.19493c-0.51942,0 -0.9517,0.11543 -1.34211,0.34628c-0.33157,0.20143 -0.64842,0.48999 -0.90869,0.84985l-0.02829,0c-0.30328,-0.73442 -1.02299,-1.19613 -1.93168,-1.19613c-1.21084,0 -1.83097,0.66313 -2.13424,1.10899l-0.043,0l-0.10071,-0.9517l-1.84568,0c0.02829,0.62013 0.05771,1.3704 0.05771,2.24854l0,4.80148l2.13424,0l0,-4.10893c0,-0.17314 0.01471,-0.3757 0.086,-0.54771c0.12901,-0.35986 0.4617,-0.79327 1.02299,-0.79327c0.69255,0 1.01054,0.60542 1.01054,1.4994l0,3.9505l2.13424,0l0,-4.12364c0,-0.17314 0.02829,-0.40399 0.086,-0.56242c0.14372,-0.4187 0.5047,-0.76498 1.00941,-0.76498c0.70613,0 1.03883,0.59071 1.03883,1.61596l0,3.83508l2.13424,0l0,-4.15306c-0.00113,-2.10256 -1.02525,-3.05426 -2.37981,-3.05426l0.00001,0.00002z" fill="#212121" stroke="null"/>
  <path id="svg_15" d="m28.23263,11.09189c-0.86569,-0.30328 -1.13955,-0.47641 -1.13955,-0.80798c0,-0.35986 0.30328,-0.57713 0.83627,-0.57713c0.60542,0 1.21084,0.23085 1.52883,0.40399l0.38928,-1.51411c-0.43341,-0.21614 -1.16784,-0.40286 -1.99053,-0.40286c-1.74383,0 -2.86867,0.9947 -2.86867,2.30625c-0.01471,0.83627 0.54771,1.62841 2.00411,2.11953c0.82156,0.27385 1.0377,0.44699 1.0377,0.80798c0,0.35986 -0.27385,0.59071 -0.93699,0.59071c-0.64842,0 -1.48469,-0.28856 -1.88868,-0.53413l-0.38928,1.57183c0.533,0.28856 1.35456,0.48999 2.27796,0.48999c2.01882,0 3.05652,-0.96641 3.05652,-2.27796c-0.01358,-1.03657 -0.576,-1.71441 -1.91697,-2.17611z" fill="#212121" stroke="null"/>
  <path id="svg_4" d="m28.52006,0.42432l-20.625,0c-4.29678,0 -7.7935,3.57254 -7.7935,7.96324l0,7.88856c0,4.3907 3.49672,7.96324 7.7935,7.96324l13.03745,0l9.47736,7.77653l0,-8.01643c3.42769,-0.87361 5.90369,-4.02972 5.90369,-7.72447l0,-7.88743c0,-4.3907 -3.49672,-7.96324 -7.7935,-7.96324zm5.53138,15.85067l-0.00113,0c0,2.89809 -2.10822,5.33108 -4.90559,5.66039l-0.99922,0.11769l0,5.17605l-6.405,-5.25527l-13.84543,0c-3.04973,0.00226 -5.53025,-2.55521 -5.53025,-5.69886l0,-7.88743c0,-3.14252 2.48052,-5.69999 5.53025,-5.69999l20.62613,0c3.0486,0 5.53025,2.55747 5.53025,5.69999l0,7.88743l-0.00001,0z" fill="#212121" stroke="null"/>
  <text xml:space="preserve" text-anchor="start" font-family="'Quicksand Medium'" font-size="17" id="svg_9" y="13.21218" x="48.45832" stroke="null" fill="#212121">MESSAGING</text>
  <text transform="matrix(1 0 0 1 0 0)" xml:space="preserve" text-anchor="start" font-family="'Quicksand Medium'" font-size="17" id="svg_13" y="31.05423" x="48.45683" stroke="null" fill="#212121">MANAGER</text>
 </g>
</svg>
