<svg width="167" height="32" viewBox="0 0 167 32" fill="none" xmlns="http://www.w3.org/2000/svg">
 <g>
  <title>Layer 1</title>
  <text transform="matrix(3.41114 0 0 3.41612 -109.251 -14.4667)" stroke="null" x="13.59673" stroke-width="0.13666" fill="#ffffff" font-family="'Cormorant Infant'" font-size="5.46644px" font-weight="bold" font-style="normal" id="text7616" y="-79.86799" xml:space="preserve">
   <tspan stroke="null" stroke-width="0.13666" fill="#ffffff" font-family="'Cormorant Infant'" font-size="5.46644px" font-weight="bold" font-style="normal" y="10.78057" x="45.279" id="tspan7614" >USSD Manager</tspan>
  </text>
  <text transform="matrix(3.36043 0 0 3.36043 -36.2873 -44.8369)" stroke="null" x="-11.98454" stroke-width="0.02491" fill="#ffffff" font-family="sans-serif" font-size="0.99621px" font-weight="bold" font-style="normal" id="text10564" y="-56.8455" xml:space="preserve">
   <tspan stroke="null" stroke-width="0.02491" fill="#ffffff" font-family="sans-serif" font-size="0.99621px" font-weight="bold" font-style="normal" y="19.88475" x="15.37319" id="tspan10562" >#USSD*</tspan>
  </text>
  <path stroke-width="0.00893" fill="#000000" id="path13312"/>
  <path stroke-width="0.00893" fill="#000000" id="path13211"/>
  <path stroke-width="0.00893" fill="#000000" id="path13172"/>
  <path stroke="null" stroke-width="0.00908" fill="#ffffff" id="path13416" d="m14.26291,31.50105c-0.8917,-0.07179 -1.03726,-0.13181 -1.46547,-0.60613c-0.36344,-0.40241 -0.44678,-0.55063 -0.5174,-0.91958c-0.18199,-0.95115 -0.20075,-2.56708 -0.17583,-15.14944c0.01216,-6.08948 0.03495,-11.37443 0.05025,-11.74433c0.02355,-0.55891 0.04156,-0.71051 0.10605,-0.89679c0.14628,-0.42232 0.25245,-0.59515 0.56328,-0.91837c0.34099,-0.35455 0.53559,-0.46482 0.96517,-0.54702c0.69934,-0.13371 1.03384,-0.13865 8.43495,-0.12736l7.15044,0.00912l0.29974,0.20823c0.5346,0.37127 0.72776,0.607 1.08911,1.33016l0.19357,0.38752l0,13.63971l0,13.63971l-0.2101,0.38977c-0.32641,0.60556 -0.52427,0.82318 -1.08034,1.18821l-0.20394,0.13371l-7.41866,0.0038c-4.08025,0.003 -7.58165,-0.0076 -7.78084,-0.02279l0,0.00186zm7.81233,-1.56552c0.70744,-0.23741 1.19562,-0.70071 1.41985,-1.34752c0.08767,-0.25294 0.09557,-0.31752 0.09485,-0.77604c-0.00072,-0.45031 -0.00988,-0.52811 -0.09428,-0.78154c-0.27896,-0.83947 -1.0324,-1.3928 -1.97523,-1.45065c-1.16953,-0.07183 -2.16694,0.7692 -2.32549,1.96068c-0.14962,1.12432 0.56115,2.18175 1.65581,2.46338c0.30407,0.07825 0.88418,0.04596 1.22445,-0.06799l0.00004,-0.0003zm3.48366,-5.57296c1.77163,-0.03609 2.74207,-0.0822 2.84566,-0.13777c0.11566,-0.06188 0.14214,-0.2466 0.18005,-1.25659c0.0438,-1.16299 -0.02355,-16.30031 -0.07624,-17.19691c-0.03495,-0.59025 -0.07817,-0.77174 -0.2074,-0.86656c-0.20117,-0.14769 -0.32409,-0.15038 -6.84656,-0.15038c-6.39074,0 -6.67726,0.00456 -6.80493,0.13325c-0.08934,0.08942 -0.10909,0.95119 -0.14753,6.43731c-0.04019,5.7189 -0.02317,11.755 0.03533,12.37329c0.03533,0.37309 0.0664,0.46885 0.1715,0.52514c0.26081,0.13956 6.69766,0.22221 10.8502,0.1391l-0.00008,0.00011zm-9.23366,-7.27492c-0.0893,-0.01367 -0.17298,-0.03153 -0.18601,-0.04608c-0.03647,-0.03609 -0.07814,-0.7733 -0.08057,-1.43083l-0.00224,-0.595l1.06924,0l1.06924,0l0,1.05204l0,1.05196l-0.85368,-0.00456c-0.4695,-0.00296 -0.92672,-0.01367 -1.01603,-0.02697l0.00004,-0.00057zm2.31812,-1.01739l0,-1.05466l4.12405,0l4.12409,0l-0.01102,1.01466c-0.0057,0.55808 -0.01861,1.02173 -0.02811,1.03023c-0.0095,0.00912 -1.8604,0.02697 -4.11311,0.04064l-4.09586,0.02241l-0.00004,-1.05329zm-2.51135,-1.73976c-0.03495,-0.02241 -0.04995,-0.26016 -0.06579,-1.03418l-0.02089,-1.00558l1.07464,0l1.07468,0l0,1.03479l0,1.03475l-1.00889,-0.00053c-0.55489,-0.0003 -1.02921,-0.01367 -1.05409,-0.02697l0.00034,-0.00228zm2.68042,0.00456l-0.12414,-0.01367l-0.02203,-0.43812c-0.01216,-0.24075 -0.02241,-0.69794 -0.02241,-1.01569l-0.00015,-0.57772l4.13036,-0.00008l4.13036,-0.00004l-0.00874,0.9227c-0.00456,0.50748 -0.01709,0.97314 -0.02773,1.03479l-0.01899,0.11202l-3.95635,-0.00456c-2.17598,-0.00304 -4.01218,-0.01367 -4.08044,-0.01823l0.00027,-0.00141zm-2.04888,-2.82678c-0.37886,-0.01823 -0.56864,-0.05014 -0.62087,-0.10207c-0.04201,-0.04064 -0.0517,-0.16801 -0.0517,-0.68206c0,-0.34688 0.00988,-0.77212 0.02241,-0.94541l0.02241,-0.31528l0.107,-0.01823c0.05884,-0.00912 0.52218,-0.02697 1.02963,-0.03609l0.92266,-0.02241l0,1.07198l0,1.07194l-0.61224,-0.00456c-0.3367,-0.003 -0.70535,-0.00912 -0.81915,-0.01823l-0.00015,0.00042zm1.87981,-1.04718l0,-1.0705l3.61296,0.01823c1.98716,0.00912 3.83377,0.02697 4.10361,0.04064l0.49058,0.01823l0.01671,0.10841c0.00912,0.0596 0.02355,0.52374 0.03191,1.03118l0.01519,0.92262l-4.13552,0l-4.13556,0l0.00011,-1.06883zm-2.57065,-2.24937c0.01026,-0.27011 0.02773,-0.73349 0.03886,-1.02932l0.02013,-0.53783l0.74679,-0.02241c0.41077,-0.01367 0.87487,-0.02241 1.03137,-0.02241l0.28455,-0.00011l0,1.05204l0,1.05196l-1.07004,0l-1.07038,0l0.01873,-0.49191zm2.57065,-0.56613l0,-1.05766l2.97488,0.02241c1.63617,0.01367 3.48248,0.02237 4.10293,0.02237l1.12801,0.00008l0.01709,0.11202c0.0095,0.06142 0.02393,0.52727 0.03153,1.03472l0.01443,0.92266l-4.13469,0l-4.13472,0l0.00053,-1.0566zm-13.98629,17.39789c-0.2115,-0.05553 -0.51189,-0.38931 -0.96064,-1.06818c-0.83461,-1.26248 -1.34733,-2.30019 -1.74812,-3.53801c-0.3024,-0.93387 -0.53958,-1.97599 -0.67667,-2.97318c-0.07373,-0.5362 -0.08311,-1.93439 -0.01671,-2.51792c0.2749,-2.42193 1.11775,-4.91984 2.21662,-6.56881c0.6949,-1.04273 1.25792,-1.52009 1.64643,-1.39592c0.19255,0.06142 0.47432,0.28952 0.5795,0.46919c0.19676,0.3356 0.10146,0.64734 -0.46524,1.52165c-0.472,0.72814 -0.57513,0.90823 -0.90295,1.57627c-0.70971,1.44644 -1.09177,2.7709 -1.26187,4.37468c-0.0781,0.7363 -0.05082,2.21989 0.05333,2.90298c0.15027,0.98537 0.3789,1.84574 0.71492,2.69038c0.35064,0.88141 0.69019,1.50395 1.36644,2.5052c0.70303,1.04095 0.77691,1.32523 0.46353,1.78386c-0.13811,0.20189 -0.316,0.28048 -0.62907,0.27687c-0.1328,-0.00152 -0.3035,-0.01823 -0.3794,-0.04064l-0.00011,0.0016zm33.16508,-0.00912c-0.18875,-0.08174 -0.33757,-0.21139 -0.43596,-0.3794c-0.19403,-0.33108 -0.08136,-0.65923 0.58087,-1.69175c0.48158,-0.75081 0.74003,-1.21906 1.0354,-1.87563c1.0324,-2.29518 1.32834,-4.77531 0.8677,-7.2723c-0.31763,-1.72156 -0.93098,-3.17434 -2.04835,-4.85147c-0.47865,-0.71838 -0.59147,-0.94914 -0.59264,-1.21195c-0.00076,-0.17207 0.0555,-0.2877 0.24348,-0.5011c0.16159,-0.18335 0.38395,-0.30487 0.5572,-0.30441c0.48762,0.00141 1.19471,0.78227 1.97705,2.18331c0.92087,1.6492 1.55751,3.6187 1.75814,5.43902c0.24083,2.18536 -0.09549,4.57436 -0.95141,6.75722c-0.64685,1.64973 -1.88327,3.57213 -2.39341,3.72118c-0.19103,0.05557 -0.45267,0.05014 -0.59808,-0.01367l0,0.00095zm-30.93425,-2.18985c-0.68426,-0.3419 -1.65103,-2.09564 -2.19482,-3.98142c-0.26472,-0.91795 -0.2776,-1.04353 -0.27634,-2.6903c0.00103,-1.32975 0.0076,-1.48974 0.07901,-1.94883c0.17887,-1.14879 0.5125,-2.12428 1.13063,-3.30596c0.5008,-0.95738 0.90078,-1.4973 1.23627,-1.66876c0.27482,-0.14047 0.54843,-0.06731 0.85588,0.22901c0.23262,0.22404 0.30118,0.35049 0.30126,0.55531c0.00015,0.21048 -0.09964,0.42995 -0.44697,0.98298c-0.66846,1.06472 -1.13826,2.29339 -1.35106,3.53349c-0.09154,0.53358 -0.12725,1.83863 -0.0659,2.40864c0.15608,1.44974 0.59785,2.72452 1.43098,4.12937c0.44591,0.7518 0.52366,1.0324 0.36986,1.33389c-0.13382,0.2624 -0.50896,0.52617 -0.75044,0.52788c-0.05861,0.00042 -0.20189,-0.04699 -0.31839,-0.10522l0.00004,-0.00008zm28.80886,0.02241c-0.32918,-0.15312 -0.65133,-0.55352 -0.64522,-0.8016c0.0033,-0.1364 0.22172,-0.57593 0.61221,-1.23296c0.73627,-1.23885 1.12975,-2.45327 1.25864,-3.88478c0.09929,-1.10256 -0.03305,-2.64331 -0.2975,-3.46334c-0.24026,-0.74489 -0.80293,-1.95202 -1.19399,-2.56138c-0.26768,-0.41734 -0.34377,-0.59371 -0.36147,-0.83917c-0.02469,-0.34282 0.11297,-0.5961 0.42312,-0.77782c0.34001,-0.19919 0.72107,-0.13599 1.00744,0.16755c0.42141,0.44621 1.09329,1.60742 1.49346,2.5809c0.59242,1.44123 0.79169,2.79316 0.69452,4.71202c-0.04873,0.96247 -0.08247,1.20709 -0.25875,1.87711c-0.32006,1.21621 -0.88973,2.57346 -1.40898,3.35694c-0.25427,0.38346 -0.62569,0.76817 -0.83795,0.86754c-0.21519,0.10074 -0.26764,0.10074 -0.48549,-0.0008l-0.00004,-0.00023zm-26.46959,-2.39067c-0.53574,-0.28003 -1.19235,-1.70432 -1.42801,-3.09735c-0.14111,-0.83408 -0.17033,-1.86006 -0.07282,-2.55492c0.14111,-1.00524 0.58174,-2.13215 1.0871,-2.78021c0.26514,-0.34012 0.46748,-0.47668 0.70603,-0.47668c0.35417,0 0.74474,0.29902 0.86545,0.66235c0.07343,0.2213 0.05884,0.27281 -0.29465,1.04501c-0.14765,0.32249 -0.30764,0.69562 -0.35547,0.82918c-0.22012,0.61411 -0.35976,1.58474 -0.31976,2.22331c0.05717,0.91362 0.23095,1.56446 0.64373,2.4113c0.37894,0.77737 0.43744,1.0218 0.31026,1.29651c-0.0841,0.18157 -0.2194,0.30396 -0.4548,0.41191c-0.30719,0.14047 -0.46228,0.14723 -0.687,0.03153l-0.00008,-0.00194zm24.13084,0.04064c-0.17773,-0.06503 -0.44959,-0.27551 -0.55777,-0.43178c-0.18791,-0.27099 -0.15608,-0.46779 0.19695,-1.21807c0.28174,-0.59876 0.48329,-1.1805 0.56883,-1.64202c0.04703,-0.25385 0.0607,-0.5106 0.06047,-1.13826c-0.00034,-1.1764 -0.08858,-1.595 -0.549,-2.60404c-0.29815,-0.65353 -0.39615,-0.93086 -0.39615,-1.12102c0,-0.27327 0.16619,-0.52199 0.46179,-0.69152c0.31866,-0.18294 0.66239,-0.11745 0.96228,0.18248c0.57981,0.57981 1.05477,1.84824 1.25192,3.34323c0.06697,0.50801 0.07624,1.54053 0.01747,1.96034c-0.0991,0.70941 -0.32781,1.42748 -0.70858,2.22472c-0.36131,0.75659 -0.57331,1.03384 -0.86701,1.13393c-0.19593,0.06685 -0.26415,0.06731 -0.44135,0.00148l0.00015,0.00053z"/>
 </g>
</svg>
